<mxfile host="app.diagrams.net" agent="Mozilla/5.0 (Windows NT 10.0; Win64; x64) AppleWebKit/537.36 (KHTML, like Gecko) Chrome/123.0.0.0 Safari/537.36" version="26.1.1">
  <diagram id="prtHgNgQTEPvFCAcTncT" name="Page-1">
    <mxGraphModel dx="1050" dy="565" grid="1" gridSize="10" guides="1" tooltips="1" connect="1" arrows="1" fold="1" page="1" pageScale="1" pageWidth="827" pageHeight="1169" math="0" shadow="0">
      <root>
        <mxCell id="0" />
        <mxCell id="1" parent="0" />
        <mxCell id="aHkYz6bdVNfBAJ9LZjZX-3" value="用户层" style="rounded=0;whiteSpace=wrap;html=1;fillColor=#ffe6cc;strokeColor=#d79b00;" parent="1" vertex="1">
          <mxGeometry x="50" y="40" width="60" height="40" as="geometry" />
        </mxCell>
        <mxCell id="aHkYz6bdVNfBAJ9LZjZX-4" value="" style="rounded=0;whiteSpace=wrap;html=1;fillColor=#ffe6cc;strokeColor=#d79b00;" parent="1" vertex="1">
          <mxGeometry x="140" y="40" width="660" height="40" as="geometry" />
        </mxCell>
        <mxCell id="aHkYz6bdVNfBAJ9LZjZX-5" value="响应式网站" style="rounded=0;whiteSpace=wrap;html=1;" parent="1" vertex="1">
          <mxGeometry x="150" y="45" width="70" height="30" as="geometry" />
        </mxCell>
        <mxCell id="aHkYz6bdVNfBAJ9LZjZX-6" value="接入层" style="rounded=0;whiteSpace=wrap;html=1;fillColor=#dae8fc;strokeColor=#6c8ebf;" parent="1" vertex="1">
          <mxGeometry x="50" y="100" width="60" height="40" as="geometry" />
        </mxCell>
        <mxCell id="aHkYz6bdVNfBAJ9LZjZX-7" value="" style="rounded=0;whiteSpace=wrap;html=1;fillColor=#dae8fc;strokeColor=#6c8ebf;" parent="1" vertex="1">
          <mxGeometry x="140" y="100" width="660" height="40" as="geometry" />
        </mxCell>
        <mxCell id="aHkYz6bdVNfBAJ9LZjZX-8" value="Nginx负载均衡" style="rounded=0;whiteSpace=wrap;html=1;" parent="1" vertex="1">
          <mxGeometry x="150" y="105" width="90" height="30" as="geometry" />
        </mxCell>
        <mxCell id="aHkYz6bdVNfBAJ9LZjZX-9" value="跨域资源共享（CORS）" style="rounded=0;whiteSpace=wrap;html=1;" parent="1" vertex="1">
          <mxGeometry x="260" y="105" width="140" height="30" as="geometry" />
        </mxCell>
        <mxCell id="aHkYz6bdVNfBAJ9LZjZX-10" value="业务层" style="rounded=0;whiteSpace=wrap;html=1;fillColor=#d5e8d4;strokeColor=#82b366;" parent="1" vertex="1">
          <mxGeometry x="50" y="160" width="60" height="80" as="geometry" />
        </mxCell>
        <mxCell id="aHkYz6bdVNfBAJ9LZjZX-11" value="" style="rounded=0;whiteSpace=wrap;html=1;fillColor=#d5e8d4;strokeColor=#82b366;" parent="1" vertex="1">
          <mxGeometry x="140" y="160" width="660" height="80" as="geometry" />
        </mxCell>
        <mxCell id="aHkYz6bdVNfBAJ9LZjZX-13" value="用户管理" style="rounded=0;whiteSpace=wrap;html=1;" parent="1" vertex="1">
          <mxGeometry x="150" y="165.5" width="90" height="30" as="geometry" />
        </mxCell>
        <mxCell id="aHkYz6bdVNfBAJ9LZjZX-14" value="课程管理" style="rounded=0;whiteSpace=wrap;html=1;" parent="1" vertex="1">
          <mxGeometry x="260" y="165.5" width="90" height="30" as="geometry" />
        </mxCell>
        <mxCell id="aHkYz6bdVNfBAJ9LZjZX-15" value="问卷模板" style="rounded=0;whiteSpace=wrap;html=1;" parent="1" vertex="1">
          <mxGeometry x="360" y="165.5" width="90" height="30" as="geometry" />
        </mxCell>
        <mxCell id="aHkYz6bdVNfBAJ9LZjZX-16" value="问卷管理" style="rounded=0;whiteSpace=wrap;html=1;" parent="1" vertex="1">
          <mxGeometry x="460" y="165.5" width="90" height="30" as="geometry" />
        </mxCell>
        <mxCell id="aHkYz6bdVNfBAJ9LZjZX-17" value="反馈管理" style="rounded=0;whiteSpace=wrap;html=1;" parent="1" vertex="1">
          <mxGeometry x="150" y="204.5" width="90" height="30" as="geometry" />
        </mxCell>
        <mxCell id="aHkYz6bdVNfBAJ9LZjZX-18" value="通知系统" style="rounded=0;whiteSpace=wrap;html=1;" parent="1" vertex="1">
          <mxGeometry x="260" y="204.5" width="90" height="30" as="geometry" />
        </mxCell>
        <mxCell id="aHkYz6bdVNfBAJ9LZjZX-19" value="系统设置" style="rounded=0;whiteSpace=wrap;html=1;" parent="1" vertex="1">
          <mxGeometry x="360" y="204.5" width="90" height="30" as="geometry" />
        </mxCell>
        <mxCell id="aHkYz6bdVNfBAJ9LZjZX-20" value="服务层" style="rounded=0;whiteSpace=wrap;html=1;fillColor=#fff2cc;strokeColor=#d6b656;" parent="1" vertex="1">
          <mxGeometry x="50" y="260" width="60" height="180" as="geometry" />
        </mxCell>
        <mxCell id="aHkYz6bdVNfBAJ9LZjZX-21" value="" style="rounded=0;whiteSpace=wrap;html=1;fillColor=#fff2cc;strokeColor=#d6b656;" parent="1" vertex="1">
          <mxGeometry x="140" y="260" width="620" height="180" as="geometry" />
        </mxCell>
        <mxCell id="joBLQS6-zFuhAH_D9AVD-7" value="" style="rounded=0;whiteSpace=wrap;html=1;fillColor=#e1d5e7;strokeColor=#9673a6;" vertex="1" parent="1">
          <mxGeometry x="150" y="330" width="400" height="90" as="geometry" />
        </mxCell>
        <mxCell id="aHkYz6bdVNfBAJ9LZjZX-23" value="身份认证" style="rounded=0;whiteSpace=wrap;html=1;" parent="1" vertex="1">
          <mxGeometry x="160" y="337.5" width="80" height="30" as="geometry" />
        </mxCell>
        <mxCell id="aHkYz6bdVNfBAJ9LZjZX-25" value="" style="rounded=0;whiteSpace=wrap;html=1;fillColor=#f8cecc;strokeColor=#b85450;" parent="1" vertex="1">
          <mxGeometry x="150" y="270" width="130" height="50" as="geometry" />
        </mxCell>
        <mxCell id="aHkYz6bdVNfBAJ9LZjZX-27" value="Caffeine&lt;div&gt;本地缓存&lt;/div&gt;" style="rounded=0;whiteSpace=wrap;html=1;" parent="1" vertex="1">
          <mxGeometry x="170" y="280" width="90" height="30" as="geometry" />
        </mxCell>
        <mxCell id="aHkYz6bdVNfBAJ9LZjZX-28" value="权限控制" style="rounded=0;whiteSpace=wrap;html=1;" parent="1" vertex="1">
          <mxGeometry x="260" y="337.5" width="80" height="30" as="geometry" />
        </mxCell>
        <mxCell id="joBLQS6-zFuhAH_D9AVD-1" value="缓存服务" style="rounded=0;whiteSpace=wrap;html=1;" vertex="1" parent="1">
          <mxGeometry x="360" y="337.5" width="80" height="30" as="geometry" />
        </mxCell>
        <mxCell id="joBLQS6-zFuhAH_D9AVD-2" value="数据处理" style="rounded=0;whiteSpace=wrap;html=1;" vertex="1" parent="1">
          <mxGeometry x="460" y="337.5" width="80" height="30" as="geometry" />
        </mxCell>
        <mxCell id="joBLQS6-zFuhAH_D9AVD-3" value="通知推送" style="rounded=0;whiteSpace=wrap;html=1;" vertex="1" parent="1">
          <mxGeometry x="160" y="382.5" width="80" height="30" as="geometry" />
        </mxCell>
        <mxCell id="joBLQS6-zFuhAH_D9AVD-4" value="调度任务" style="rounded=0;whiteSpace=wrap;html=1;" vertex="1" parent="1">
          <mxGeometry x="260" y="382.5" width="80" height="30" as="geometry" />
        </mxCell>
        <mxCell id="joBLQS6-zFuhAH_D9AVD-6" value="统计分析" style="rounded=0;whiteSpace=wrap;html=1;" vertex="1" parent="1">
          <mxGeometry x="360" y="382.5" width="80" height="30" as="geometry" />
        </mxCell>
        <mxCell id="joBLQS6-zFuhAH_D9AVD-9" value="" style="rounded=0;whiteSpace=wrap;html=1;fillColor=#E5CCFF;strokeColor=#b85450;" vertex="1" parent="1">
          <mxGeometry x="290" y="270" width="130" height="50" as="geometry" />
        </mxCell>
        <mxCell id="joBLQS6-zFuhAH_D9AVD-8" value="API服务文档" style="rounded=0;whiteSpace=wrap;html=1;" vertex="1" parent="1">
          <mxGeometry x="315" y="280" width="80" height="30" as="geometry" />
        </mxCell>
        <mxCell id="joBLQS6-zFuhAH_D9AVD-11" value="日&lt;div&gt;&lt;span style=&quot;background-color: transparent; color: light-dark(rgb(0, 0, 0), rgb(255, 255, 255));&quot;&gt;志&lt;/span&gt;&lt;/div&gt;&lt;div&gt;&lt;span style=&quot;background-color: transparent; color: light-dark(rgb(0, 0, 0), rgb(255, 255, 255));&quot;&gt;管&lt;/span&gt;&lt;/div&gt;&lt;div&gt;&lt;span style=&quot;background-color: transparent; color: light-dark(rgb(0, 0, 0), rgb(255, 255, 255));&quot;&gt;理&lt;/span&gt;&lt;br&gt;&lt;/div&gt;" style="rounded=0;whiteSpace=wrap;html=1;fillColor=#FFD3EF;strokeColor=#d6b656;" vertex="1" parent="1">
          <mxGeometry x="770" y="260" width="30" height="180" as="geometry" />
        </mxCell>
      </root>
    </mxGraphModel>
  </diagram>
</mxfile>
